<?xml version="1.0" encoding="UTF-8" standalone="no"?> <!-- Created with Vectornator for iOS (http://vectornator.io/) --><!DOCTYPE svg PUBLIC "-//W3C//DTD SVG 1.1//EN" "http://www.w3.org/Graphics/SVG/1.1/DTD/svg11.dtd">
<svg height="100%" style="fill-rule:evenodd;clip-rule:evenodd;stroke-linecap:round;stroke-linejoin:round;" xmlns:xlink="http://www.w3.org/1999/xlink" xmlns="http://www.w3.org/2000/svg" xml:space="preserve" width="100%" xmlns:vectornator="http://vectornator.io" version="1.1" viewBox="0 0 1024 1024">
<defs/>
<g id="Ebene 2" vectornator:layerName="Ebene 2">
<path d="M62.1253+512C62.1253+262.892+264.068+60.9494+513.176+60.9494C762.284+60.9494+964.226+262.892+964.226+512C964.226+761.108+762.284+963.051+513.176+963.051C264.068+963.051+62.1253+761.108+62.1253+512Z" fill-rule="evenodd" fill="#05226b" opacity="1"/>
<path stroke="#ffffff" stroke-width="80.3488" d="M215.143+220.38L808.288+813.525" fill="none" stroke-linecap="round" opacity="1" stroke-linejoin="round"/>
<path stroke="#ffffff" stroke-width="80.3488" d="M809.119+221.211L215.974+814.356" fill="none" stroke-linecap="round" opacity="1" stroke-linejoin="round"/>
<path stroke="#d3364a" stroke-width="30.0043" d="M216.888+220.297L810.033+813.442" fill="none" stroke-linecap="round" opacity="1" stroke-linejoin="round"/>
<path stroke="#d3364a" stroke-width="30.0043" d="M810.865+221.129L217.72+814.274" fill="none" stroke-linecap="round" opacity="1" stroke-linejoin="round"/>
<path stroke="#ffffff" stroke-width="112.143" d="M94.3468+518.85L933.181+518.85" fill="none" stroke-linecap="round" opacity="1" stroke-linejoin="round"/>
<path stroke="#ffffff" stroke-width="112.143" d="M514.94+99.4331L514.94+938.267" fill="none" stroke-linecap="round" opacity="1" stroke-linejoin="round"/>
<path stroke="#d3364a" stroke-width="76.1583" d="M95.5227+517.557L934.357+517.557" fill="none" stroke-linecap="round" opacity="1" stroke-linejoin="round"/>
<path stroke="#d3364a" stroke-width="76.1583" d="M516.116+98.1405L516.116+936.974" fill="none" stroke-linecap="round" opacity="1" stroke-linejoin="round"/>
<path stroke="#ffffff" stroke-width="68.4831" d="M62.1253+517.557C62.1253+268.449+264.068+66.5069+513.176+66.5069C762.284+66.5069+964.226+268.449+964.226+517.557C964.226+766.666+762.284+968.608+513.176+968.608C264.068+968.608+62.1253+766.666+62.1253+517.557Z" fill="none" stroke-linecap="round" opacity="1" stroke-linejoin="round"/>
<path stroke="#000000" stroke-width="39.7712" d="M114.152+516.265C114.152+296.051+292.671+117.532+512.885+117.532C733.099+117.532+911.618+296.051+911.618+516.265C911.618+736.479+733.099+914.997+512.885+914.997C292.671+914.997+114.152+736.479+114.152+516.265Z" fill="none" stroke-linecap="round" opacity="1" stroke-linejoin="round"/>
</g>
</svg>
